<svg xmlns="http://www.w3.org/2000/svg" xmlns:xlink="http://www.w3.org/1999/xlink" width="70" height="20" viewBox="0 0 70 20">
    <defs>
        <linearGradient id="b" x1="125.166%" x2="-.926%" y1="-26.243%" y2="94.959%">
            <stop offset="0%" stop-color="#FFDB00" stop-opacity=".616"/>
            <stop offset="100%" stop-color="#F5D53A" stop-opacity="0"/>
        </linearGradient>
        <path id="a" d="M89.603 26.707a.836.836 0 0 1-.339.146c-.145 0-.193-.146-.339-.195L82 7.732c0-.341.145-.488.484-.488h3.875c.339 0 .339.147.532.488l3.293 9.17 5.086-9.658C95.415 7 95.705 7 95.85 7c.146 0 .437 0 .582.244l5.085 9.659 3.293-9.171c.194-.341.194-.488.533-.488h3.874c.34 0 .485.147.485.488l-6.926 18.926c-.145.05-.194.195-.34.195-.096 0-.193-.048-.338-.146l-5.811-10.975c-.194-.195-.243-.293-.436-.293-.194 0-.243.098-.436.293l-5.812 10.975zm42.347-9.805c0-5.414 4.504-9.902 10.025-9.902C147.496 7 152 11.488 152 16.902 152 22.415 147.496 27 141.975 27c-5.52 0-10.025-4.585-10.025-10.098zm15.4.05c0-3.513-2.372-5.66-5.423-5.66-2.955 0-5.327 2.147-5.327 5.66 0 3.511 2.372 6 5.327 6 2.954 0 5.424-2.489 5.424-6zm-37.4-.05c0-5.414 4.504-9.902 10.025-9.902C125.496 7 130 11.488 130 16.902 130 22.415 125.496 27 119.975 27c-5.52 0-10.025-4.585-10.025-10.098zm15.4.05c0-3.513-2.372-5.66-5.423-5.66-2.955 0-5.327 2.147-5.327 5.66 0 3.511 2.372 6 5.327 6 2.954 0 5.424-2.489 5.424-6z"/>
    </defs>
    <g fill="none" fill-rule="evenodd" transform="translate(-82 -7)">
        <use fill="#FF4500" xlink:href="#a"/>
        <use fill="url(#b)" xlink:href="#a"/>
    </g>
</svg>
